<svg xmlns="http://www.w3.org/2000/svg" width="420" height="104" viewBox="0 0 420 104" role="img" aria-labelledby="title desc">
  <title id="title">BomenRooier</title>
  <desc id="desc">Groen beeldmerk met boomstronk en de naam BomenRooier</desc>
  <g transform="translate(4 8)">
    <path d="M43 5c20 0 36 14 36 32 0 12-8 23-19 28v14c0 7 5 10 12 12H14c7-2 12-5 12-12V65C15 60 7 49 7 37 7 19 23 5 43 5Z" fill="#dff0df"/>
    <ellipse cx="43" cy="37" rx="27" ry="24" fill="none" stroke="#19643f" stroke-width="5"/>
    <path d="M27 37c4-11 15-17 25-13 8 3 13 11 12 19-1 8-8 14-16 15-7 1-14-3-17-9-3-6-2-12 2-16 4-4 10-5 15-3 5 2 8 7 7 12-1 4-4 7-8 8" fill="none" stroke="#19643f" stroke-linecap="round" stroke-width="4"/>
    <path d="M36 61v20M50 61v20" stroke="#19643f" stroke-linecap="round" stroke-width="5"/>
  </g>
  <text x="98" y="68" font-family="Inter,Segoe UI,Arial,sans-serif" font-size="52" font-weight="800" letter-spacing="-2.1" fill="#0d3c28">Bomen<tspan fill="#d96317">Rooier</tspan></text>
</svg>
